# xmcd
#
# Track frame offsets:
#	150
#	14553
#	26798
#	40727
#	52411
#	79626
#	94026
#	108817
#	122525
#	135961
#	158168
#	172866
#	187727
#	199530
#	213856
#	229161
#	243048
#	255902
#	279390
#	293202
#
# Disc length: 4087
#
# Revision: 1
# Processed by: cddbd v1.5.1PL0 Copyright (c) Steve Scherf et al.
# Submitted via: CDex 1.51
# Normalized: r0:TDELIM( - )
#
DISCID=fa0ff514
DTITLE=Tenor Madness - A tenor sax Anthology [CD 1)
DYEAR=2002
DGENRE=Jazz
TTITLE0=Coleman Hawkins - Wrap Your Troubles In Dreams
TTITLE1=Zoot Sims - I Wonder Who
TTITLE2=Don Byas - Old Folks
TTITLE3=Sonny Stitt - Bud's Blues
TTITLE4=Jimmy Forrest - It Don't Mean A Thing
TTITLE5=John Hardee - What Is This Thing Called Love ?
TTITLE6=Gene Ammons - More Moon
TTITLE7=Kenneth Hollon - In There
TTITLE8=Lester Young - Slow Motion Blues
TTITLE9=Wardell Gray - One O'Clock Jump
TTITLE10=Paul Bascomb - Sweet Georgia Brown
TTITLE11=James Moody - Lester Leaps In
TTITLE12=Jessie Powell - I'm In The Mood For Love
TTITLE13=Gene Sedric - Honeysuckle Rose
TTITLE14=Budd Johnson - Till Tom Special
TTITLE15=Stan Getz - Night And Day
TTITLE16=Eddie Davis - Stealin' Trash
TTITLE17=Joe Thomas - Body And Soul
TTITLE18=Charlie Ventura - After You've Gone
TTITLE19=Teddy Edwards - Blues In Teddy's Flat
EXTD=YEAR: 2002
EXTT0=
EXTT1=
EXTT2=
EXTT3=
EXTT4=
EXTT5=
EXTT6=
EXTT7=
EXTT8=
EXTT9=
EXTT10=
EXTT11=
EXTT12=
EXTT13=
EXTT14=
EXTT15=
EXTT16=
EXTT17=
EXTT18=
EXTT19=
PLAYORDER=
